# xmcd
#
# Track frame offsets:
#	150
#	3990
#	14590
#	38477
#	45597
#	53960
#	56752
#	71685
#	79160
#	92170
#	94505
#	108760
#	111580
#	121667
#	135592
#	138217
#	141590
#	161047
#	163967
#	182037
#	193190
#
# Disc length: 2688 seconds
#
# Revision: 1
# Processed by: cddbd v1.5PL3 Copyright (c) Steve Scherf et al.
# Submitted via: CDex 1.50Beta5
#
DISCID=270a7e15
DTITLE=嘉門達夫 - 症候群
DYEAR=1900
DGENRE=
TTITLE0=懐かし症候群
TTITLE1=いらん事言わんでええねん!
TTITLE2=夢・ドリーム
TTITLE3=ショート・トラック1
TTITLE4=いいじゃないか!
TTITLE5=ワールドカップ症候群
TTITLE6=哀歌〜エレジー〜2002
TTITLE7=バスジャック
TTITLE8=症候群
TTITLE9=空
TTITLE10=ガッツ石松伝説
TTITLE11=ショート・トラック2
TTITLE12=おるならおーてみたい2
TTITLE13=ひとり
TTITLE14=ピーターパン症候群
TTITLE15=ショート・トラック3
TTITLE16=身に覚えがあるだろう
TTITLE17=エコノミー症候群
TTITLE18=懐かしいもの
TTITLE19=ナサケナイ
TTITLE20=ショート・トラック4
EXTD=
EXTT0=
EXTT1=
EXTT2=
EXTT3=
EXTT4=
EXTT5=
EXTT6=
EXTT7=
EXTT8=
EXTT9=
EXTT10=
EXTT11=
EXTT12=
EXTT13=
EXTT14=
EXTT15=
EXTT16=
EXTT17=
EXTT18=
EXTT19=
EXTT20=
PLAYORDER=
